# Alias OBJ Model File
# Exported from SketchUp, (c) 2000-2012 Trimble Navigation Limited
# File units = inches

mtllib lamp1.mtl

g Mesh1 Ikea_Orgel_Vreten_Floor_Lamp1 Model

usemtl _21
v 15.1109 0 -36.5811
vt 0 0
vn 0 0 1
v 19.8353 0 -36.5811
vt 0.489941 0
v 20.229 0 -36.5811
vt 0.530769 0
v 24.9534 0 -36.5811
vt 1.02071 0
v 24.9534 51.1811 -36.5811
vt 1.02071 1
v 15.1109 51.1811 -36.5811
vt 0 1
f 1/1/1 2/2/1 3/3/1 4/4/1 5/5/1 6/6/1 

usemtl Color_005
v 20.229 0 -41.3055
vt -5.11811 4.72441
vn 0 -1 -0
vt -5.11811 0
vt -4.72441 0
v 19.8353 0 -41.3055
vt -4.72441 4.72441
f 7/7/2 3/8/2 2/9/2 8/10/2 

vt 5.11811 0
vt 4.72441 0
v 19.8353 -9.05512 -41.3055
vt 4.72441 -9.05512
v 20.229 -9.05512 -41.3055
vt 5.11811 -9.05512
f 7/11/1 8/12/1 9/13/1 10/14/1 

vn -1 0 -0
v 19.8353 0 -41.6992
v 19.8353 -9.05512 -41.6992
vt -5.11811 -9.05512
vt -4.72441 -9.05512
f 8/9/3 11/8/3 12/15/3 9/16/3 

vt -4.72441 5.11811
v 15.1109 0 -41.3055
vt 8.88178e-16 4.72441
v 15.1109 0 -41.6992
vt 9.23706e-16 5.11811
f 11/17/2 8/10/2 13/18/2 14/19/2 

usemtl _21
v 15.1109 51.1811 -46.4236
vt -1.02071 1
vn -1 1.73536e-19 1.80406e-16
v 15.1109 0 -46.4236
vt -1.02071 -2.40726e-39
vt -0.530769 -1.25178e-39
vt -0.489941 -1.21615e-37
f 15/20/4 16/21/4 14/22/4 13/23/4 1/1/4 6/6/4 

vt 1.84216e-16 1
vn 0 0 -1
v 24.9534 51.1811 -46.4236
v 24.9534 0 -46.4236
vt -1.02071 0
v 20.229 0 -46.4236
vt -0.530769 0
v 19.8353 0 -46.4236
vt -0.489941 0
vt 1.84216e-16 0
f 15/24/5 17/20/5 18/25/5 19/26/5 20/27/5 16/28/5 

vn 1 0 -0
v 24.9534 0 -41.3055
v 24.9534 0 -41.6992
f 4/1/6 21/2/6 22/3/6 18/4/6 17/5/6 5/6/6 

usemtl Color_005
vt -9.84252 4.72441
v 20.229 0 -41.6992
vt -5.11811 5.11811
vt -9.84252 5.11811
f 21/29/2 7/7/2 23/30/2 22/31/2 

vn 1 0 -2.25597e-15
v 20.229 -9.05512 -41.6992
f 23/11/7 7/12/7 10/13/7 24/14/7 

f 12/17/2 24/30/2 10/7/2 9/10/2 

f 11/9/5 23/8/5 24/15/5 12/16/5 

vt -4.72441 9.84252
vt -5.11811 9.84252
f 23/30/2 11/17/2 20/32/2 19/33/2 

v 24.9534 -9.05512 -46.4236
vt 9.84252 9.84252
vn 0 1 -0
vt 4.72441 5.11811
vt 5.11811 5.11811
f 25/34/8 12/35/8 24/36/8

v 15.1109 -9.05512 -46.4236
vt -1.77636e-15 9.84252
f 26/37/8 12/35/8 25/34/8

vt 4.72441 4.72441
f 12/35/8 26/37/8 9/38/8

v 15.1109 -9.05512 -36.5811
vt -1.77636e-15 0
f 27/39/8 9/38/8 26/37/8

v 24.9534 -9.05512 -36.5811
vt 9.84252 0
f 9/38/8 27/39/8 28/40/8

vt 9.84252 -9.05512
vt -1.77636e-15 -9.05512
v 15.1109 -9.44882 -36.5811
vt -1.77636e-15 -9.44882
v 24.9534 -9.44882 -36.5811
vt 9.84252 -9.44882
f 28/41/1 27/42/1 29/43/1 30/44/1 

vt 0 -9.05512
vt -9.84252 -9.05512
v 15.1109 -9.44882 -46.4236
vt -9.84252 -9.44882
vt 0 -9.44882
f 27/45/3 26/46/3 31/47/3 29/48/3 

vt 1.77636e-15 -9.05512
v 24.9534 -9.44882 -46.4236
vt 1.77636e-15 -9.44882
f 26/49/5 25/46/5 32/47/5 31/50/5 

f 25/41/6 28/45/6 30/48/6 32/44/6 

vt 5.11811 4.72441
f 25/34/8 10/51/8 28/40/8

f 25/34/8 24/36/8 10/51/8

f 9/38/8 28/40/8 10/51/8

vt -9.84252 0
v 24.5597 -9.44882 -36.9748
vt -9.44882 0.393701
vt -9.84252 9.84252
f 30/52/2 33/53/2 32/54/2

v 24.166 -9.44882 -36.9748
vt -9.05512 0.393701
f 30/52/2 34/55/2 33/53/2

v 15.8983 -9.44882 -36.9748
vt -0.787402 0.393701
f 30/52/2 35/56/2 34/55/2

v 15.5046 -9.44882 -36.9748
vt -0.393701 0.393701
f 30/52/2 36/57/2 35/56/2

vt 1.77636e-15 0
f 29/58/2 36/57/2 30/52/2

v 15.5046 -9.44882 -45.6362
vt -0.393701 9.05512
f 36/57/2 29/58/2 37/59/2

v 15.5046 -9.44882 -46.0299
vt -0.393701 9.44882
f 37/59/2 29/58/2 38/60/2

vt 1.77636e-15 9.84252
f 31/61/2 38/60/2 29/58/2

f 38/60/2 31/61/2 32/54/2

v 15.8983 -9.44882 -46.0299
vt -0.787402 9.44882
f 38/60/2 32/54/2 39/62/2

v 15.8983 -9.44882 -45.6362
vt -0.787402 9.05512
f 39/62/2 32/54/2 40/63/2

v 24.166 -9.44882 -46.0299
vt -9.05512 9.44882
f 40/63/2 32/54/2 41/64/2

v 24.5597 -9.44882 -46.0299
vt -9.44882 9.44882
f 41/64/2 32/54/2 42/65/2

v 24.5597 -9.44882 -45.6362
vt -9.44882 9.05512
f 42/65/2 32/54/2 43/66/2

v 24.5597 -9.44882 -37.3685
vt -9.44882 0.787402
f 43/66/2 32/54/2 44/67/2

f 44/67/2 32/54/2 33/53/2

vt 0.787402 -9.44882
vt 0.393701 -9.44882
v 24.5597 -9.84252 -36.9748
vt 0.393701 -9.84252
v 24.5597 -9.84252 -37.3685
vt 0.787402 -9.84252
f 44/68/6 33/69/6 45/70/6 46/71/6 

vt 9.44882 -9.44882
vt 9.05512 -9.44882
v 24.166 -9.84252 -36.9748
vt 9.05512 -9.84252
vt 9.44882 -9.84252
f 33/72/1 34/73/1 47/74/1 45/75/1 

vt -0.393701 -9.44882
v 24.166 -9.44882 -37.3685
vt -0.787402 -9.44882
v 24.166 -9.84252 -37.3685
vt -0.787402 -9.84252
vt -0.393701 -9.84252
f 34/76/3 48/77/3 49/78/3 47/79/3 

v 24.166 -9.44882 -45.6362
vt -9.05512 9.05512
vt -9.05512 0.787402
f 34/55/2 50/80/2 48/81/2

f 34/55/2 41/64/2 50/80/2

f 34/55/2 35/56/2 41/64/2

v 15.8983 -9.44882 -37.3685
vt -0.787402 0.787402
f 51/82/2 41/64/2 35/56/2

f 40/63/2 41/64/2 51/82/2

v 15.5046 -9.44882 -37.3685
vt -0.393701 0.787402
f 52/83/2 40/63/2 51/82/2

f 40/63/2 52/83/2 37/59/2

f 36/57/2 37/59/2 52/83/2

v 15.5046 -9.84252 -37.3685
v 15.5046 -9.84252 -36.9748
f 36/76/3 52/77/3 53/78/3 54/79/3 

v 15.8983 -9.84252 -37.3685
f 52/76/5 51/77/5 55/78/5 53/79/5 

v 15.8983 -9.84252 -36.9748
f 51/68/6 35/69/6 56/70/6 55/71/6 

f 35/68/1 36/69/1 54/70/1 56/71/1 

f 56/56/2 54/57/2 53/83/2 55/82/2 

v 15.5046 -9.84252 -45.6362
v 15.8983 -9.84252 -45.6362
f 40/68/1 37/69/1 57/70/1 58/71/1 

vt -9.05512 -9.44882
vt -9.44882 -9.44882
v 15.5046 -9.84252 -46.0299
vt -9.44882 -9.84252
vt -9.05512 -9.84252
f 37/84/3 38/85/3 59/86/3 57/87/3 

v 15.8983 -9.84252 -46.0299
f 38/76/5 39/77/5 60/78/5 59/79/5 

f 39/72/6 40/73/6 58/74/6 60/75/6 

f 57/59/2 59/60/2 60/62/2 58/63/2 

v 24.166 -9.84252 -46.0299
v 24.166 -9.84252 -45.6362
f 50/84/3 41/85/3 61/86/3 62/87/3 

v 24.5597 -9.84252 -46.0299
f 41/84/5 42/85/5 63/86/5 61/87/5 

v 24.5597 -9.84252 -45.6362
f 42/72/6 43/73/6 64/74/6 63/75/6 

f 43/72/1 50/73/1 62/74/1 64/75/1 

f 43/66/2 48/81/2 50/80/2

f 48/81/2 43/66/2 44/67/2

f 48/84/5 44/85/5 46/86/5 49/87/5 

f 47/55/2 49/81/2 46/67/2 45/53/2 

f 61/64/2 63/65/2 64/66/2 62/80/2 

